<?xml version="1.0" encoding="UTF-8"?>
<svg version="1.1" xmlns="http://www.w3.org/2000/svg" width="2048" height="842">
<path d="M0 0 C0.95722961 -0.0071553 1.91445923 -0.01431061 2.9006958 -0.02168274 C3.94436813 -0.02437164 4.98804047 -0.02706055 6.06333923 -0.02983093 C7.72020248 -0.03968773 7.72020248 -0.03968773 9.41053772 -0.04974365 C13.0694638 -0.06946789 16.7283488 -0.08113882 20.38731384 -0.09111023 C21.63866056 -0.09518576 22.89000729 -0.09926128 24.17927361 -0.10346031 C30.12252086 -0.12216961 36.06575513 -0.13673417 42.00902468 -0.14507228 C48.84613245 -0.15482507 55.68291478 -0.18109588 62.51990801 -0.22157317 C68.45937544 -0.25551679 74.39876436 -0.2672293 80.33833122 -0.27127647 C82.85519552 -0.27613516 85.37205653 -0.28772851 87.88885689 -0.30631447 C91.42123597 -0.33077394 94.95277564 -0.32972766 98.48521423 -0.32279968 C99.51471695 -0.33560974 100.54421967 -0.3484198 101.60491943 -0.36161804 C114.12178567 -0.27265423 125.21556239 4.8391615 134.48497009 13.17842102 C143.76466025 22.91680308 148.65163736 35.05652341 148.46116638 48.43531799 C148.45489054 49.21189829 148.4486147 49.98847859 148.44214869 50.78859162 C148.30136256 59.75189529 147.41359215 68.6274231 146.48301697 77.53681946 C146.29504845 79.40155842 146.10788297 81.26637848 145.92144775 83.13127136 C145.41901052 88.13540419 144.90573732 93.13837079 144.39050484 98.14120007 C143.8511477 103.39870498 143.32257838 108.65729413 142.79295349 113.91578674 C141.79052656 123.85355438 140.77951386 133.79042678 139.76488829 143.72695565 C137.94528661 161.54967872 136.14046819 179.3739024 134.33878374 197.1984446 C133.70678273 203.44757924 133.07100712 209.69631513 132.43204498 215.94474173 C132.03587124 219.82349421 131.64206366 223.70248454 131.24878502 227.58153152 C131.06602412 229.37874969 130.88221897 231.17586202 130.69729042 232.97285843 C130.4449341 235.42617948 130.19626843 237.87984833 129.94847107 240.33363342 C129.87454305 241.0431584 129.80061503 241.75268337 129.72444677 242.4837091 C129.33448455 246.38831432 129.1567352 250.22373563 129.22715759 254.14717102 C129.90778259 253.23580383 130.58840759 252.32443665 131.28965759 251.38545227 C142.51573648 236.37463739 153.90219015 221.48625162 165.2933197 206.60054016 C169.61230958 200.95528286 173.92067971 195.3019769 178.22715759 189.64717102 C183.05410822 183.30893605 187.88540664 176.97410776 192.72715759 170.64717102 C200.24262482 160.82562298 207.73441245 150.98605759 215.22715759 141.14717102 C219.92818293 134.97415243 224.62997934 128.80172473 229.33409119 122.63105774 C230.57703203 121.00019881 231.81955849 119.36902398 233.06163025 117.73750305 C236.32057807 113.4569471 239.58815044 109.18334839 242.86973572 104.92012024 C244.08841624 103.3283832 245.29162196 101.72482639 246.49278259 100.11982727 C254.42910681 89.73074143 264.21877098 82.53093634 277.22715759 80.14717102 C291.95979682 78.73559587 304.80931794 80.16945703 316.92247009 89.22529602 C319.90699651 91.71408754 322.62247716 94.38544873 325.30918884 97.19013977 C327.14441257 99.06274076 329.0426854 100.76244719 331.03965759 102.45967102 C334.42911387 105.36967572 337.59166866 108.46877427 340.72715759 111.64717102 C343.78052712 114.74209713 346.85039515 117.76651439 350.16465759 120.58467102 C354.2237005 124.04360902 357.94444657 127.80552131 361.66441345 131.62153625 C364.35678258 134.36145274 367.11849479 136.95414116 370.02793884 139.46357727 C374.67513369 143.48746227 379.05449098 147.75374274 383.41465759 152.08467102 C384.19518494 152.84457336 384.97571228 153.60447571 385.77989197 154.3874054 C391.53253864 160.101018 396.58467628 165.94240034 398.97715759 173.83467102 C399.19887634 174.53978821 399.42059509 175.2449054 399.64903259 175.97138977 C403.13287263 189.08286882 401.69277929 202.47524751 395.78965759 214.64717102 C390.06851887 224.47506774 380.85354456 231.8811814 372.06700134 238.87763977 C368.94663456 241.37135793 365.89528913 243.93535045 362.85215759 246.52217102 C362.30970398 246.98228577 361.76725037 247.44240051 361.20835876 247.91645813 C359.54724872 249.32586253 357.88706328 250.73634848 356.22715759 252.14717102 C350.11827724 257.33936124 344.01205119 262.52840683 337.78965759 267.58467102 C333.54323377 271.03991253 329.37419465 274.57414936 325.22715759 278.14717102 C320.21119356 282.46884644 315.13540652 286.70196143 309.99668884 290.87763977 C304.68274093 295.23222896 299.46188993 299.69795537 294.22715759 304.14717102 C288.11827724 309.33936124 282.01205119 314.52840683 275.78965759 319.58467102 C271.54323377 323.03991253 267.37419465 326.57414936 263.22715759 330.14717102 C258.22444205 334.45743175 253.16419964 338.68181075 248.03575134 342.84248352 C244.16582874 346.01808065 240.35512633 349.26207216 236.55308533 352.51850891 C234.17370246 354.54697428 231.83298737 356.40995117 229.22715759 358.14717102 C239.31988957 357.51728553 249.21894995 356.02617986 259.19786072 354.46333313 C260.98303401 354.18694409 262.76826834 353.91094907 264.55355835 353.63531494 C268.37605611 353.04445345 272.19816191 352.45113887 276.01998901 351.85595512 C282.07230541 350.91374025 288.12575742 349.97897039 294.1794281 349.04550171 C311.38604241 346.39115903 328.59123123 343.72766824 345.79502869 341.05513 C355.31336554 339.57656251 364.83268806 338.10451381 374.35310888 336.63942343 C380.36218805 335.7143021 386.36995418 334.78119804 392.37685394 333.84203517 C396.12299698 333.25829331 399.87028236 332.68216646 403.61792183 332.10811806 C405.34527023 331.84199534 407.07215102 331.57281507 408.79849052 331.3002243 C425.63566723 328.64492145 442.47961312 326.70207362 457.22715759 337.14717102 C467.81477531 345.57536594 475.3291362 354.69606666 478.22715759 368.14717102 C478.321095 369.67049733 478.36609255 371.19726725 478.37432861 372.72346497 C478.38506157 374.09403549 478.38506157 374.09403549 478.39601135 375.49229431 C478.39870026 376.48764191 478.40138916 377.4829895 478.40415955 378.50849915 C478.41401634 380.08980118 478.41401634 380.08980118 478.42407227 381.70304871 C478.44379435 385.19484023 478.45546774 388.68658868 478.46543884 392.17842102 C478.46951437 393.37335678 478.4735899 394.56829254 478.47778893 395.79943848 C478.49864862 402.12856371 478.51294877 408.45766729 478.52232361 414.78681946 C478.53336592 421.30542979 478.56774142 427.8236967 478.60749531 434.34218597 C478.63372133 439.36958931 478.64202096 444.39691172 478.64560509 449.42437744 C478.65045837 451.82598175 478.66203616 454.22758274 478.68064308 456.62911987 C478.82026122 475.84946698 477.50940106 489.24434611 463.91465759 503.89717102 C453.79395955 513.49711726 441.3734482 517.30943962 427.6931324 517.25895691 C420.39777316 517.02366431 413.13982238 516.21292184 405.8792572 515.49482727 C404.0417116 515.31702462 402.20411968 515.1397001 400.3664856 514.96281433 C396.42834015 514.58276684 392.49052876 514.19947859 388.55294609 513.81364441 C382.32034988 513.20305584 376.08699774 512.60044502 369.85351562 511.99897766 C357.74725349 510.82980206 345.64172023 509.65319148 333.53630829 508.47525024 C318.12426199 506.97557764 302.71207509 505.47742918 287.29886442 503.98976421 C281.10848807 503.39198567 274.91859166 502.78951914 268.72902858 502.18338013 C264.87313253 501.80672703 261.01686033 501.43404117 257.16047859 501.062397 C255.37940424 500.88993119 253.59848729 500.7158304 251.81774902 500.53992844 C243.27124346 499.69649793 234.82810523 498.917139 226.22715759 499.14717102 C226.96878143 499.71381218 226.96878143 499.71381218 227.72538757 500.29190063 C237.23854042 507.56077189 246.74159516 514.84233463 256.22715759 522.14717102 C258.39360411 523.81412394 260.56038256 525.48064516 262.72715759 527.14717102 C263.81049697 527.98049649 264.89383031 528.81382982 265.97715759 529.64717102 C266.78153259 530.26592102 266.78153259 530.26592102 267.60215759 530.89717102 C295.22715759 552.14717102 322.85215759 573.39717102 350.47715759 594.64717102 C351.01364929 595.05983215 351.55014099 595.47249329 352.10289001 595.8976593 C353.1838788 596.72923913 354.26477108 597.56094444 355.3455658 598.39277649 C358.08898425 600.50398894 360.83415678 602.61284993 363.58262634 604.71748352 C366.80415943 607.18546086 370.01720078 609.66415099 373.22715759 612.14717102 C374.13723572 612.84842102 375.04731384 613.54967102 375.98497009 614.27217102 C387.80703861 623.52736839 396.50914879 632.76960771 399.22715759 648.14717102 C400.79289587 664.0347069 398.16878464 676.45087273 388.22715759 689.14717102 C385.04260599 692.6784319 381.69191926 696.01408405 378.28965759 699.33467102 C377.43436462 700.18480774 376.57907166 701.03494446 375.69786072 701.9108429 C371.2776154 706.27714166 366.76889641 710.47455155 362.06089783 714.52729797 C359.14728989 717.10109489 356.44282967 719.86779799 353.72715759 722.64717102 C349.73992549 726.68458568 345.7096074 730.54703943 341.37559509 734.21357727 C338.40963506 736.8829413 335.64831817 739.7394832 332.85215759 742.58467102 C320.7828875 754.75431646 308.68019151 763.67577284 290.97715759 764.45967102 C275.36969574 764.0176898 262.86935172 758.37338799 252.22715759 747.14717102 C248.85859873 743.22047851 245.73586957 739.10432429 242.61827087 734.97773743 C240.35887044 732.00459168 238.04092967 729.07805869 235.72715759 726.14717102 C234.80887247 724.979451 233.89090387 723.81148199 232.97325134 722.64326477 C232.51934021 722.06560364 232.06542908 721.4879425 231.59776306 720.89277649 C230.23477632 719.15687425 228.87334565 717.41976255 227.51231384 715.68232727 C222.78103004 709.64586172 218.02497551 703.6309317 213.22715759 697.64717102 C207.97081116 691.09154102 202.76773699 684.49578606 197.58604431 677.88105774 C195.30262456 674.96750275 193.01464956 672.05752909 190.72715759 669.14717102 C189.81046937 667.98052129 188.89380269 666.81385463 187.97715759 665.64717102 C187.52340759 665.06967102 187.06965759 664.49217102 186.60215759 663.89717102 C171.47715759 644.64717102 171.47715759 644.64717102 170.10240173 642.89741516 C169.18500751 641.72986692 168.26752693 640.56238653 167.34996033 639.39497375 C165.06871515 636.49234312 162.78894545 633.58857828 160.51231384 630.68232727 C155.78102913 624.64586056 151.0248828 618.63100696 146.22715759 612.64717102 C137.0921155 601.25081956 128.107161 589.74318415 119.22715759 578.14717102 C119.92169429 588.70732788 121.37199237 599.1420321 122.81919861 609.61836243 C123.08564078 611.56443403 123.35178657 613.51054624 123.61766052 615.45669556 C124.18779475 619.62612204 124.75978235 623.79528847 125.33317757 627.96426773 C126.24043291 634.56239446 127.14211461 641.16127554 128.04281616 647.76029968 C130.60386017 666.51779788 133.17189356 685.27433454 135.7464447 704.02998352 C137.17054074 714.40490885 138.58982192 724.7804816 140.00393814 735.15677202 C140.89749549 741.71126409 141.79700124 748.26490308 142.70097172 754.8179667 C143.26245085 758.89864313 143.81831148 762.98007039 144.372612 767.06172752 C144.62987987 768.94777715 144.88942852 770.83351734 145.15147972 772.71890831 C147.54326457 789.94346668 149.12584436 805.71904327 139.22715759 821.14717102 C131.37686129 831.48468991 121.30633551 839.87974732 108.22715759 842.14717102 C100.12160391 842.89854781 91.94834183 842.71100593 83.81700134 842.67842102 C81.43911582 842.68111995 79.06123138 842.68500569 76.68334961 842.6900177 C71.71664348 842.69589268 66.75022643 842.68741343 61.78355408 842.6686554 C55.4398726 842.64585507 49.09686779 842.65900924 42.75321102 842.68294525 C37.84849003 842.69744656 32.94392768 842.69277753 28.03920174 842.68243408 C25.70098857 842.67977943 23.36276067 842.68299177 21.02456474 842.69235229 C17.74918195 842.70259063 14.47487317 842.68691497 11.1995697 842.66474915 C10.24809052 842.67284607 9.29661133 842.68094299 8.31629944 842.68928528 C-4.53605122 842.5293689 -15.43149488 836.7118679 -24.81971741 828.22920227 C-34.50544594 817.90421565 -37.96860275 806.21546558 -37.94471741 792.46211243 C-37.94308594 791.36310419 -37.94145447 790.26409595 -37.93977356 789.13178444 C-37.84318922 775.18904652 -36.99097578 761.28428661 -36.15740967 747.3708415 C-35.92769171 743.50816044 -35.70669574 739.6449795 -35.48475647 735.78184509 C-35.06533248 728.50207896 -34.63903091 721.22273488 -34.20978165 713.94354212 C-33.43915788 700.87045 -32.68169847 687.79658937 -31.92510605 674.72267878 C-31.6600731 670.14744679 -31.39235281 665.57238234 -31.12226868 660.99744582 C-30.95503321 658.15976275 -30.78938159 655.3219886 -30.62405396 652.4841938 C-30.51094757 650.55219537 -30.3957754 648.62031823 -30.28053284 646.68844604 C-29.96000486 641.16535674 -29.67759703 635.67982541 -29.77284241 630.14717102 C-32.12932465 632.64499675 -34.48258257 635.14583917 -36.83534241 637.64717102 C-37.49211975 638.34326477 -38.14889709 639.03935852 -38.82557678 639.75654602 C-42.68875756 643.86712261 -46.4602625 648.03897197 -50.15834045 652.29853821 C-52.44390414 654.91554837 -54.79195506 657.46819104 -57.14784241 660.02217102 C-60.54406375 663.71189298 -63.92400567 667.41423832 -67.27284241 671.14717102 C-70.62169314 674.88011933 -74.00249806 678.58162947 -77.39784241 682.27217102 C-80.37506881 685.50930193 -83.33237207 688.75854958 -86.21034241 692.08467102 C-89.79086553 696.21472287 -93.50864003 700.21321172 -97.22303772 704.22236633 C-101.78880883 709.15362756 -106.29028903 714.14015071 -110.77284241 719.14717102 C-116.04098089 725.02280655 -121.33533817 730.87267318 -126.68202209 736.67695618 C-129.62956701 739.88130259 -132.52101819 743.12941947 -135.39784241 746.39717102 C-145.94090991 758.04314807 -156.44669002 765.03167844 -172.38612366 766.36592102 C-184.82753385 766.79803946 -197.47610563 763.58085291 -206.95252991 755.22529602 C-208.2056551 753.96729486 -209.43569627 752.68533455 -210.62831116 751.36982727 C-212.4528125 749.47885958 -214.29747077 747.8145568 -216.29237366 746.11201477 C-222.44600037 740.78540821 -228.07005091 734.90706936 -233.78211975 729.11738586 C-240.56836622 722.20175184 -240.56836622 722.20175184 -247.73377991 715.68623352 C-253.44336733 710.80862292 -258.62574933 705.36195835 -263.89784241 700.02217102 C-266.00161275 697.8915685 -268.10884579 695.76447621 -270.21815491 693.63935852 C-271.14128479 692.70462708 -272.06441467 691.76989563 -273.01551819 690.80683899 C-274.97462262 688.91712022 -276.90231075 687.17155441 -278.99647522 685.44917297 C-286.91393639 678.88447535 -291.57137364 669.07152502 -293.77284241 659.14717102 C-295.0594721 644.66770667 -293.729662 631.27181163 -284.66737366 619.40498352 C-278.7145806 612.31072705 -271.83963024 606.68527946 -264.52674866 601.05732727 C-262.06654364 599.16265734 -259.63890177 597.23714148 -257.23768616 595.26826477 C-205.16561617 552.62100383 -114.25489308 493.2408956 -44.09315491 496.69404602 C-29.67211136 498.66209432 -18.13977995 505.0575783 -8.77284241 516.14717102 C-0.16755321 527.75867479 0.65855232 539.69317811 0.66661072 553.7389679 C0.78462576 560.66929943 1.43970253 565.27456471 5.22715759 571.14717102 C9.42464232 574.79839904 13.44084709 575.59801417 18.91856384 575.67842102 C24.54070009 574.38466378 28.75518334 569.91641415 32.85215759 566.08467102 C33.90674257 565.104092 34.96143306 564.12362644 36.01622009 563.14326477 C36.54892517 562.64552551 37.08163025 562.14778625 37.63047791 561.63496399 C40.14775407 559.28935528 42.68803412 556.96907227 45.22715759 554.64717102 C46.22727933 553.73063717 47.22727908 552.8139702 48.22715759 551.89717102 C138.22715759 469.39717102 138.22715759 469.39717102 139.72813416 468.02168274 C140.72541997 467.10723336 141.72216736 466.19219642 142.71836853 465.27656555 C145.25574356 462.94579823 147.80240665 460.62679594 150.36778259 458.32685852 C165.18326234 445.03812055 165.18326234 445.03812055 171.60215759 426.54560852 C172.11512049 416.44665149 167.85044139 407.53411504 161.22715759 400.14717102 C156.45879408 395.06032683 151.41478099 390.36343298 146.12559509 385.82685852 C143.6361904 383.62429882 141.33264729 381.26364466 139.00450134 378.89326477 C137.16122186 377.08239459 135.2489296 375.39395748 133.28965759 373.70967102 C130.48139412 371.29099323 127.82745166 368.7881742 125.22715759 366.14717102 C122.64706544 363.52676493 120.01612153 361.0439369 117.22715759 358.64717102 C113.71714249 355.63075179 110.47664483 352.4162197 107.23106384 349.11982727 C104.64469608 346.57379273 101.91180479 344.22695546 99.16075134 341.86201477 C96.66146621 339.64547705 94.34433875 337.27554821 92.00450134 334.89326477 C90.16122186 333.08239459 88.2489296 331.39395748 86.28965759 329.70967102 C82.76080996 326.67037451 79.49710732 323.43700255 76.23106384 320.11982727 C73.64469608 317.57379273 70.91180479 315.22695546 68.16075134 312.86201477 C65.66146621 310.64547705 63.34433875 308.27554821 61.00450134 305.89326477 C59.16122186 304.08239459 57.2489296 302.39395748 55.28965759 300.70967102 C51.76080996 297.67037451 48.49710732 294.43700255 45.23106384 291.11982727 C42.64469608 288.57379273 39.91180479 286.22695546 37.16075134 283.86201477 C35.27221162 282.18712803 33.49560112 280.44769515 31.72715759 278.64717102 C21.64628526 267.68602719 21.64628526 267.68602719 8.47715759 262.83467102 C3.61339824 262.8837999 0.95801445 263.8712967 -2.77284241 267.14717102 C-6.46311984 271.34645224 -6.89365408 274.84651069 -6.94862366 280.32685852 C-6.97247131 281.56693665 -6.99631897 282.80701477 -7.02088928 284.08467102 C-7.06321604 286.67045093 -7.09480761 289.25643325 -7.11463928 291.84248352 C-7.46363014 307.62011679 -11.92925056 320.87279459 -23.46034241 331.95967102 C-30.97612322 338.3332359 -39.8922341 343.06391496 -49.77284241 344.14717102 C-51.06061584 344.30572571 -51.06061584 344.30572571 -52.37440491 344.46748352 C-72.16947043 345.66876718 -93.31643918 336.33005122 -111.77284241 330.14717102 C-112.71949768 329.83554016 -113.66615295 329.5239093 -114.64149475 329.20283508 C-145.85290603 318.91335884 -176.42876731 305.83568254 -204.77284241 289.14717102 C-205.59993713 288.66022766 -206.42703186 288.1732843 -207.27919006 287.67158508 C-225.27670396 276.98566655 -242.04759353 264.96129322 -257.77284241 251.14717102 C-258.38450256 250.62018616 -258.99616272 250.09320129 -259.62635803 249.55024719 C-276.47308268 234.98193933 -289.04714971 222.29892152 -292.12049866 199.57685852 C-292.64352379 187.25165764 -287.99583779 174.67047032 -279.89784241 165.52217102 C-278.19690643 163.7234801 -276.48761237 161.93267829 -274.77284241 160.14717102 C-273.69889911 158.9878656 -272.62743905 157.8262566 -271.55799866 156.66279602 C-263.50469305 147.93409516 -255.19740592 139.48555699 -246.73841858 131.14961243 C-243.20204398 127.65047776 -239.72105837 124.16057118 -236.48768616 120.37763977 C-231.78240927 114.90203598 -226.6695761 109.82092025 -221.57582092 104.70991516 C-219.83538649 102.95971536 -218.10593061 101.19911247 -216.37635803 99.43818665 C-204.74585511 87.69524073 -193.80828175 80.81022745 -176.77284241 80.64717102 C-164.70901353 80.77375777 -155.38866243 83.76458367 -145.77284241 91.14717102 C-144.53340881 92.0810968 -144.53340881 92.0810968 -143.26893616 93.03388977 C-140.73710426 95.1774282 -138.8212134 97.35519931 -136.77284241 99.95967102 C-133.04124295 104.61795101 -129.20004167 109.15276653 -125.27284241 113.64717102 C-120.7771892 118.80241065 -116.38658999 124.02230474 -112.08143616 129.33857727 C-109.35940243 132.65015468 -106.57147917 135.90033218 -103.77284241 139.14717102 C-100.23679015 143.24952255 -96.7442107 147.37518779 -93.33534241 151.58467102 C-89.73648212 156.01956419 -86.02552176 160.34284888 -82.27284241 164.64717102 C-77.77781164 169.80297002 -73.3866119 175.02227769 -69.08143616 180.33857727 C-66.35940243 183.65015468 -63.57147917 186.90033218 -60.77284241 190.14717102 C-57.23679015 194.24952255 -53.7442107 198.37518779 -50.33534241 202.58467102 C-46.55610899 207.23389372 -42.6843443 211.79673222 -38.77284241 216.33467102 C-38.1960675 217.00748108 -37.6192926 217.68029114 -37.02503967 218.37348938 C-35.6300891 219.9844323 -34.20437693 221.56864857 -32.77284241 223.14717102 C-32.44284241 223.14717102 -32.11284241 223.14717102 -31.77284241 223.14717102 C-31.85787899 221.90562397 -31.85787899 221.90562397 -31.94463348 220.63899517 C-33.32898265 200.42075258 -34.70615172 180.20203183 -36.07550812 159.98276806 C-36.73791083 150.20456521 -37.40266801 140.42653347 -38.07313538 130.64888 C-38.65808096 122.11832961 -39.23843853 113.58748103 -39.8134799 105.05625707 C-40.11760181 100.54666378 -40.423889 96.03724303 -40.73568726 91.52817345 C-42.9768739 59.07554594 -42.9768739 59.07554594 -43.02088928 47.73042297 C-43.02492516 47.02716731 -43.02896103 46.32391165 -43.0331192 45.59934521 C-42.8984029 34.32530532 -38.63438994 25.80152195 -31.77284241 17.14717102 C-31.17471741 16.26029602 -30.57659241 15.37342102 -29.96034241 14.45967102 C-22.34611833 6.41034843 -11.25263199 0.05793198 0 0 Z " fill="#F19452" transform="translate(1569.7728424072266,-0.1471710205078125)"/>
<path d="M0 0 C2.04764707 1.3965735 2.04764707 1.3965735 4.01171875 0.91015625 C6.52657487 0.07488088 8.80873983 -1.01935885 11.1875 -2.1875 C29.80880202 -10.77812733 53.56908822 -11.59117813 72.9375 -5.0625 C85.69609928 0.02217706 95.28704125 7.6191818 101.1875 20.1875 C104.88099534 30.64456166 106.34810744 40.62134888 106.30102539 51.6328125 C106.30117142 52.54106277 106.30131744 53.44931305 106.3014679 54.38508606 C106.30077612 57.36091575 106.29301838 60.33668136 106.28515625 63.3125 C106.28328946 65.38614874 106.28186679 67.45979792 106.28086853 69.53344727 C106.27706393 74.97167189 106.26725133 80.40986949 106.25616455 85.8480835 C106.24590608 91.40522903 106.24136143 96.96237896 106.23632812 102.51953125 C106.22562711 113.40886599 106.20857555 124.29818074 106.1875 135.1875 C102.14597085 135.27496928 98.10468695 135.32804982 94.0625 135.375 C92.92039063 135.40013672 91.77828125 135.42527344 90.6015625 135.45117188 C83.87175246 135.50986208 78.75490408 135.44137925 73.54296875 130.6875 C69.51624151 125.51605098 69.0411093 121.84178883 69.0456543 115.47827148 C69.04217987 114.69410355 69.03870544 113.90993561 69.03512573 113.102005 C69.0277728 111.39797614 69.02242495 109.69393772 69.01883507 107.98989677 C69.01165835 105.28583442 68.99598032 102.58195235 68.97749329 99.87794495 C68.92509793 92.18908238 68.87710731 84.50031633 68.86157227 76.8112793 C68.85144456 72.10677011 68.82199475 67.40271182 68.78025246 62.69838142 C68.7680006 60.9120126 68.76281049 59.12557989 68.76505089 57.33917046 C69.09120442 41.81749034 69.09120442 41.81749034 61.75 28.6875 C53.55651552 23.89131396 44.56464406 23.25294684 35.41015625 25.47265625 C30.35034736 27.09997616 27.38605523 29.38001583 24.875 34 C21.80623787 40.27995625 22.03040265 47.40329968 21.98217773 54.24389648 C21.97227814 55.12274002 21.96237854 56.00158356 21.95217896 56.90705872 C21.92077527 59.79087701 21.89589072 62.67471173 21.87109375 65.55859375 C21.85050594 67.56641551 21.82950901 69.57423312 21.80812073 71.58204651 C21.75308867 76.8509076 21.70359664 82.11980658 21.65527344 87.38873291 C21.60492016 92.77155912 21.54930646 98.15433072 21.49414062 103.53710938 C21.38678999 114.08719454 21.28578078 124.63732644 21.1875 135.1875 C9.3075 135.1875 -2.5725 135.1875 -14.8125 135.1875 C-14.82708252 132.38709229 -14.84166504 129.58668457 -14.85668945 126.70141602 C-14.90711792 117.42935907 -14.97372763 108.1574686 -15.04821491 98.88557529 C-15.09286494 93.26626086 -15.132133 87.64701804 -15.15893555 82.02758789 C-15.1850219 76.60041056 -15.22546227 71.17350957 -15.27568626 65.74650383 C-15.2923189 63.68020005 -15.30385554 61.61384851 -15.31011391 59.54748726 C-15.31979417 56.64407788 -15.34790045 53.74136978 -15.38012695 50.83813477 C-15.37869186 49.99152283 -15.37725677 49.14491089 -15.3757782 48.27264404 C-15.47421727 41.96578294 -16.19085994 35.25719466 -20.42458057 30.29990482 C-26.87186849 24.19906586 -34.10537628 23.78049486 -42.65234375 23.9375 C-48.23959461 24.37950748 -52.05516174 25.89878528 -56.625 29.25 C-61.55405673 35.86901903 -62.25870219 43.82629857 -62.24487305 51.85986328 C-62.2550647 52.76840561 -62.26525635 53.67694794 -62.27575684 54.61302185 C-62.30564391 57.57801677 -62.31511533 60.54268738 -62.32421875 63.5078125 C-62.34108347 65.57861382 -62.3592361 67.64940502 -62.37861633 69.72018433 C-62.42592764 75.14189489 -62.45585881 80.56356439 -62.48205566 85.9854126 C-62.51195675 91.52942003 -62.55845412 97.07328623 -62.60351562 102.6171875 C-62.68933402 113.47390032 -62.75523853 124.33059897 -62.8125 135.1875 C-75.0225 135.1875 -87.2325 135.1875 -99.8125 135.1875 C-99.85792147 123.99005944 -99.89451352 112.7926814 -99.91612434 101.59516907 C-99.92650328 96.39414002 -99.94055311 91.19317799 -99.96337891 85.9921875 C-99.98531957 80.96063592 -99.99711275 75.92914827 -100.00225449 70.89755249 C-100.00591255 68.99049882 -100.01305412 67.08344812 -100.02396011 65.17642212 C-100.13950364 44.10934499 -99.78968348 21.81120083 -84.5625 5.4375 C-64.05826071 -13.5893596 -23.20749413 -14.95594066 0 0 Z " fill="#666667" transform="translate(155.8125,318.8125)"/>
<path d="M0 0 C7.33397671 6.16690628 10.25154298 13.41381289 12.0625 22.6875 C12.46639922 27.40723162 12.48384017 32.09708479 12.4609375 36.83203125 C12.46296615 38.17282773 12.4658841 39.51362312 12.46963501 40.85441589 C12.47402588 43.64890161 12.46773638 46.44309721 12.45361328 49.23754883 C12.43657312 52.77733811 12.44634991 56.31644203 12.46433067 59.85620594 C12.47530016 62.62160675 12.47166202 65.38685178 12.4639473 68.15225792 C12.46103743 70.07838268 12.46997786 72.00451408 12.4793396 73.93061829 C12.36569641 88.40838529 9.6734316 101.84746905 1.0625 113.6875 C0.258125 114.8940625 0.258125 114.8940625 -0.5625 116.125 C-12.99786342 129.54210263 -33.12275909 134.98079953 -50.9375 135.6875 C-51.83082031 135.7390625 -52.72414063 135.790625 -53.64453125 135.84375 C-68.81224765 136.33106619 -83.29626944 133.05048445 -95.3125 123.4375 C-103.80751419 115.34869231 -107.20165319 105.31909987 -108.18359375 93.80078125 C-108.4949333 80.96260334 -105.72633771 69.52644919 -96.875 59.9375 C-83.71765213 47.64719318 -65.43163634 45.4739072 -48.30029297 43.25732422 C-40.3544949 42.1617253 -32.47527544 40.73163236 -26.25 35.375 C-24.42684856 31.64188039 -24.72010923 29.62611718 -25.9375 25.6875 C-30.15301323 21.2311003 -35.15197923 19.64431312 -41.1796875 19.38671875 C-42.72389549 19.37225002 -44.26823768 19.36855483 -45.8125 19.375 C-46.57691406 19.35888672 -47.34132813 19.34277344 -48.12890625 19.32617188 C-53.29666378 19.32178498 -58.55517943 19.72264319 -62.9375 22.6875 C-63.49840332 23.70368408 -64.05930664 24.71986816 -64.63720703 25.7668457 C-66.9375 28.6875 -66.9375 28.6875 -70.78808594 29.36865234 C-72.33300805 29.36770681 -73.87814216 29.33405219 -75.421875 29.2734375 C-76.23746887 29.26494781 -77.05306274 29.25645813 -77.89337158 29.24771118 C-80.49277098 29.21418119 -83.08904221 29.13891109 -85.6875 29.0625 C-87.45177804 29.03239949 -89.21610482 29.00502382 -90.98046875 28.98046875 C-95.30068041 28.91439224 -99.61856033 28.8108802 -103.9375 28.6875 C-103.48678244 26.79437273 -103.02982156 24.90273133 -102.5703125 23.01171875 C-102.31652832 21.95815186 -102.06274414 20.90458496 -101.80126953 19.8190918 C-98.95089803 9.48508524 -93.19105072 1.74433602 -84.1796875 -4.1015625 C-60.75277374 -16.78333182 -21.89277619 -15.8074486 0 0 Z M-29.46142578 63.56640625 C-36.12311639 65.85752975 -42.74154995 67.94684682 -49.59423828 69.5925293 C-60.40394004 71.99645752 -60.40394004 71.99645752 -68.9375 78.6875 C-71.69693901 83.4302858 -72.60679852 87.23749773 -71.9375 92.6875 C-70.5073355 96.98607352 -68.66313665 99.99726026 -65.375 103.125 C-57.54702544 106.68317025 -49.87144555 106.0911133 -41.734375 103.76171875 C-34.68222498 101.05314158 -29.60425761 96.24592825 -25.9375 89.6875 C-23.11744974 82.91937938 -22.81074433 76.01089078 -22.875 68.75 C-22.87951172 68.06615234 -22.88402344 67.38230469 -22.88867188 66.67773438 C-22.9003044 65.01428396 -22.91823306 63.3508795 -22.9375 61.6875 C-25.19437707 61.6875 -27.34344421 62.8375559 -29.46142578 63.56640625 Z " fill="#666667" transform="translate(385.9375,321.3125)"/>
<path d="M0 0 C1.84730713 0.00628418 1.84730713 0.00628418 3.73193359 0.01269531 C21.03296233 0.22676622 36.90093403 2.79906654 50 14.8671875 C58.60570078 23.86014481 58.90900321 35.28779454 58.80859375 47.05859375 C58.80874919 48.56112233 58.81024561 50.06365131 58.81300354 51.56617737 C58.8143793 54.69867926 58.8019708 57.83071873 58.77905273 60.96313477 C58.75069506 64.94479656 58.75340973 68.9256903 58.76614285 72.90740871 C58.77315463 76.00558335 58.76524827 79.10358575 58.75288582 82.20173836 C58.74842273 83.66829832 58.7479886 85.13487712 58.75195122 86.60143852 C58.77609765 103.3976711 55.6501301 117.55410543 43.81640625 129.9921875 C30.6274529 142.21408811 12.79837524 146.29952516 -4.6875 147.3125 C-5.61175781 147.36664063 -6.53601563 147.42078125 -7.48828125 147.4765625 C-22.84663921 147.93378019 -38.1149151 144.77748035 -49.625 134.0625 C-59.28419604 123.65086659 -61.31079039 111.5418056 -60.99609375 97.8671875 C-60.47550493 87.51157419 -57.13585935 78.61762167 -49.6875 71.3125 C-37.0707495 60.33948108 -20.8135564 57.35620591 -4.72412109 55.24291992 C8.88705625 54.1213884 8.88705625 54.1213884 20 47.30078125 C21.43639479 45.12481414 22.1589945 43.92209349 22.3125 41.3125 C20.95204822 37.39119781 19.93555549 35.6969385 16.375 33.5 C7.97950026 30.24460214 -3.75377301 29.59858925 -12.4375 32.4375 C-15.87107107 34.11640962 -15.87107107 34.11640962 -17.86791992 37.39306641 C-20.18219642 40.24974723 -20.6125465 40.29931544 -24.55981445 40.99365234 C-26.0571395 40.99271037 -27.55469201 40.9592666 -29.05078125 40.8984375 C-29.84276413 40.88994781 -30.63474701 40.88145813 -31.45072937 40.87271118 C-33.96856496 40.8392492 -36.48314076 40.76399443 -39 40.6875 C-40.71154212 40.65739059 -42.4231347 40.63001647 -44.13476562 40.60546875 C-48.32025733 40.53948296 -52.50332698 40.43602036 -56.6875 40.3125 C-55.3006964 28.61553407 -51.57370201 19.16866507 -42.36328125 11.3359375 C-29.45312747 1.81039233 -15.71072852 -0.07294343 0 0 Z M16.06640625 75.51953125 C15.23463867 75.77484619 14.40287109 76.03016113 13.54589844 76.29321289 C12.66450195 76.56770264 11.78310547 76.84219238 10.875 77.125 C5.13195967 78.89568515 -0.56481764 80.57833586 -6.4375 81.875 C-13.84178057 83.663322 -19.36766159 86.91913916 -23.6875 93.3125 C-25.88083964 97.69917928 -25.44915764 103.88825254 -24.00390625 108.48828125 C-21.44201602 113.45260796 -18.01826157 115.24550279 -12.8828125 116.890625 C-3.9266981 118.61172884 4.84792056 116.27490768 12.3125 111.3125 C18.05055329 106.44762874 21.91171553 100.75181314 23.3125 93.3125 C23.53588143 89.99388741 23.50322339 86.6990867 23.4375 83.375 C23.42847656 82.50037109 23.41945313 81.62574219 23.41015625 80.72460938 C23.3867957 78.58711936 23.35093247 76.44977214 23.3125 74.3125 C20.47923258 74.3125 18.73350711 74.68888938 16.06640625 75.51953125 Z " fill="#666667" transform="translate(565.6875,309.6875)"/>
<path d="M0 0 C0.85207031 0.32742188 1.70414063 0.65484375 2.58203125 0.9921875 C12.57411659 5.30373298 21.3012148 13.84123807 27 23 C28.11443034 20.77113933 28.26890332 19.19272254 28.5 16.71875 C28.5825 15.87699219 28.665 15.03523438 28.75 14.16796875 C28.8325 13.28753906 28.915 12.40710938 29 11.5 C29.16303856 9.76007288 29.32954087 8.02046581 29.5 6.28125 C29.5721875 5.50845703 29.644375 4.73566406 29.71875 3.93945312 C30 2 30 2 31 0 C37.27 0 43.54 0 50 0 C50 44.22 50 88.44 50 134 C43.73 134 37.46 134 31 134 C29.77779561 126.34085246 28.66290296 118.72805298 28 111 C25.23573481 113.68296328 22.70468306 116.355806 20.3125 119.375 C11.06550106 130.28598332 -3.93449107 136.78745613 -18 138 C-37.30944036 139.18693711 -52.82268034 133.22658398 -67.4140625 120.97265625 C-81.95766098 107.55356281 -87.91512756 88.28987659 -88.9609375 69.05859375 C-89.44367339 47.93633088 -82.54158224 28.04202114 -67.8671875 12.609375 C-49.71775536 -3.90809186 -22.93133001 -9.87911792 0 0 Z M-54.40625 30.953125 C-64.759097 44.2494285 -67.33961658 59.6110737 -66 76 C-63.53591033 88.85612002 -57.22863635 100.75567224 -46.68359375 108.7578125 C-34.36941498 116.62465544 -21.31274935 118.9199183 -7.0078125 116.4921875 C-4.55672143 115.8278731 -2.32290294 115.0227398 0 114 C0.75410156 113.67128906 1.50820312 113.34257812 2.28515625 113.00390625 C12.28009236 108.04929812 20.35426383 99.30043811 24.15234375 88.8203125 C29.49126603 72.06255646 29.65505049 55.82924613 21.875 39.6875 C15.42876626 27.66978239 6.16980979 20.71724983 -6.8125 16.625 C-24.0200106 13.19777797 -42.2829621 18.02924262 -54.40625 30.953125 Z " fill="#666667" transform="translate(1089,320)"/>
<path d="M0 0 C14.71469874 12.61604498 22.91380416 29.85977366 24.5625 49.12890625 C24.60375 49.82886719 24.645 50.52882813 24.6875 51.25 C24.72875 51.91902344 24.77 52.58804688 24.8125 53.27734375 C25.41770376 73.5894949 18.91942993 92.1643519 5.0234375 106.9375 C-9.01849924 120.83854775 -26.77636093 126.94867338 -46.3125 127.5 C-65.8364181 127.29639019 -83.74397536 120.63484153 -98 107.125 C-113.31818852 91.08569847 -117.88539959 72.53493449 -117.5859375 50.9453125 C-116.93423903 31.54276498 -108.07726177 14.51124217 -94.25 1.125 C-67.76824941 -21.31408198 -27.28051124 -20.54458254 0 0 Z M-77.3125 16.25 C-78.17875 16.8275 -79.045 17.405 -79.9375 18 C-89.31911636 26.88784707 -94.64061029 39.41715257 -95.515625 52.22265625 C-95.74697839 67.47270087 -91.91999029 81.0671313 -81.34765625 92.40625 C-71.67091234 101.17289708 -59.40194767 106.38888008 -46.3125 106.25 C-33.12464749 105.39720584 -20.88580895 101.69851721 -11.3125 92.25 C0.10270339 79.18661216 2.51928443 65.38161755 1.86669922 48.60595703 C0.9070001 35.98865935 -5.75326563 24.86862128 -14.75390625 16.29296875 C-33.03533565 1.69573581 -59.07614114 2.50665709 -77.3125 16.25 Z " fill="#666667" transform="translate(893.3125,330.75)"/>
<path d="M0 0 C8.99760676 6.38401622 14.44289275 14.21293152 18.1171875 24.6015625 C18.65268997 27.94236766 18.4609375 31.36264255 18.4609375 34.74609375 C11.8609375 34.74609375 5.2609375 34.74609375 -1.5390625 34.74609375 C-2.0959375 32.88984375 -2.6528125 31.03359375 -3.2265625 29.12109375 C-5.96410372 21.10602462 -9.00136288 17.35947897 -16.5390625 13.43359375 C-26.898131 8.39940358 -40.74102166 7.68887491 -51.7265625 11.37109375 C-58.05280104 14.12120974 -63.7597088 18.26093512 -66.5390625 24.74609375 C-67.93516252 30.829101 -67.72301105 35.282861 -64.5390625 40.74609375 C-55.59661073 50.5827907 -39.78381962 51.41405872 -27.37182617 53.59790039 C-11.24990732 56.45935196 4.3648478 59.56489118 15.2109375 72.88671875 C20.29980461 80.45640857 21.26103184 89.86504658 20.4609375 98.74609375 C17.99207635 110.42112993 12.21838063 118.68242811 2.25390625 125.1796875 C-15.94721389 135.38758845 -37.77088516 136.05731858 -57.69921875 130.93359375 C-71.58207445 126.63438682 -82.97742383 119.87514131 -90.0390625 106.80859375 C-92.94062182 101.0780141 -92.8292526 97.84419271 -93.5390625 90.74609375 C-86.6090625 90.74609375 -79.6790625 90.74609375 -72.5390625 90.74609375 C-71.8790625 92.58171875 -71.2190625 94.41734375 -70.5390625 96.30859375 C-67.08504657 104.5227661 -62.51242527 108.69644598 -54.3515625 112.12109375 C-42.79881081 116.41371554 -26.1066177 117.22126591 -14.76953125 112.06640625 C-8.45530111 108.32873587 -3.73762148 104.46139898 -1.8125 97.1484375 C-1.17175934 91.51907309 -2.22762049 86.66954203 -5.4140625 81.99609375 C-16.90733139 73.72094015 -28.69168876 71.8892029 -42.38427734 69.35058594 C-75.31111215 63.04143542 -75.31111215 63.04143542 -84.5390625 50.74609375 C-90.06889689 41.70498416 -90.96276338 32.16280577 -88.9609375 21.734375 C-85.8798756 11.9169914 -78.71972271 4.41879163 -70.0703125 -0.94140625 C-49.1616446 -11.78293775 -20.52356996 -12.35728462 0 0 Z " fill="#666667" transform="translate(736.5390625,324.25390625)"/>
<path d="M0 0 C0 12.54 0 25.08 0 38 C-9.9375 38.25 -9.9375 38.25 -13.01147461 38.29785156 C-21.21047805 38.6001923 -29.20541961 40.87430073 -35 47 C-38.81976247 54.00505592 -40.14458298 60.04133792 -40.20532227 67.98144531 C-40.21522186 68.7818222 -40.22512146 69.5821991 -40.23532104 70.40682983 C-40.26685942 73.04723166 -40.29166313 75.68765147 -40.31640625 78.328125 C-40.3369824 80.16087303 -40.35797904 81.99361639 -40.37937927 83.82635498 C-40.43453171 88.64644582 -40.48397108 93.466579 -40.53222656 98.28674316 C-40.59133144 104.07210922 -40.65752182 109.857398 -40.72252655 115.6427002 C-40.82045016 124.42841954 -40.90936499 133.21418881 -41 142 C-53.21 142 -65.42 142 -78 142 C-78.12032643 121.9277692 -78.12032643 121.9277692 -78.14648438 113.27734375 C-78.1643188 107.40763059 -78.18526357 101.53805971 -78.22631836 95.66845703 C-78.2592578 90.9286698 -78.27692478 86.18903545 -78.28463173 81.44914246 C-78.2901139 79.65371804 -78.3008162 77.85830062 -78.31719017 76.0629425 C-78.48981772 56.32401694 -76.13101104 38.30512236 -64 22 C-63.2575 20.96875 -62.515 19.9375 -61.75 18.875 C-45.1750398 1.54663252 -22.71870277 0 0 0 Z " fill="#666667" transform="translate(492,312)"/>
<path d="M0 0 C11.88 0 23.76 0 36 0 C36 46.86 36 93.72 36 142 C24.12 142 12.24 142 0 142 C0 95.14 0 48.28 0 0 Z " fill="#666667" transform="translate(1,312)"/>
<path d="M0 0 C0 7.59 0 15.18 0 23 C-2.59875 23.4125 -5.1975 23.825 -7.875 24.25 C-18.66735249 26.10131773 -27.156494 29.4371013 -36 36 C-36.81855469 36.598125 -37.63710937 37.19625 -38.48046875 37.8125 C-52.8826634 50.31673101 -58.46982866 71.69047217 -60 90 C-60.17885014 93.79213341 -60.25319231 97.58326984 -60.31640625 101.37890625 C-60.33718735 102.43158188 -60.35796844 103.48425751 -60.37937927 104.5688324 C-60.44426471 107.89999466 -60.50347336 111.2312293 -60.5625 114.5625 C-60.60574337 116.83399157 -60.64935942 119.10547608 -60.69335938 121.37695312 C-60.80057733 126.917896 -60.90010293 132.45890106 -61 138 C-68.26 138 -75.52 138 -83 138 C-83 93.78 -83 49.56 -83 4 C-76.73 4 -70.46 4 -64 4 C-63.08120391 7.67518438 -62.73141222 10.86251733 -62.5 14.62890625 C-62.37625 16.55186523 -62.37625 16.55186523 -62.25 18.51367188 C-62.12398323 20.54347712 -61.99933465 22.57336256 -61.875 24.60327148 C-61.75326104 26.57035427 -61.62669679 28.53713656 -61.5 30.50390625 C-61.4278125 31.67767822 -61.355625 32.8514502 -61.28125 34.06079102 C-61.10541429 37.05779728 -61.10541429 37.05779728 -60 40 C-59.45472656 39.03320312 -58.90945313 38.06640625 -58.34765625 37.0703125 C-48.22847655 19.45023412 -35.92479804 7.06406897 -16 1 C-11 0 -11 0 0 0 Z " fill="#666667" transform="translate(1262,316)"/>
<path d="M0 0 C7.26 0 14.52 0 22 0 C22 62.04 22 124.08 22 188 C14.41 188 6.82 188 -1 188 C-1.02311617 163.6355004 -1.04097777 139.27100344 -1.05181217 114.90649509 C-1.05697574 103.59447927 -1.06401958 92.28247037 -1.07543945 80.97045898 C-1.08538445 71.11472298 -1.09185299 61.25899199 -1.09408849 51.40325111 C-1.09539592 46.18128364 -1.09848374 40.95933052 -1.10573006 35.73736763 C-1.11248737 30.82829892 -1.11461755 25.91925054 -1.11310768 21.01017761 C-1.11338414 19.20291979 -1.11539097 17.39566133 -1.11920547 15.58840752 C-1.12413823 13.13207875 -1.12299985 10.67582804 -1.12025452 8.21949768 C-1.12316736 7.49480319 -1.1260802 6.7701087 -1.12908131 6.02345377 C-1.11412121 1.11412121 -1.11412121 1.11412121 0 0 Z " fill="#666667" transform="translate(948,266)"/>
<path d="M0 0 C3.3 0 6.6 0 10 0 C14.81322417 10.13410179 19.13700157 20.4286341 23.375 30.8125 C24.02187322 32.39138349 24.66900712 33.9701602 25.31640625 35.54882812 C26.88060211 39.36466524 28.441298 43.18191564 30 47 C33.3047265 43.21589398 34.87985282 38.82198436 36.72265625 34.21875 C37.06880478 33.36825073 37.41495331 32.51775146 37.77159119 31.64147949 C38.87409282 28.92985881 39.96861468 26.21510661 41.0625 23.5 C42.16142629 20.78551497 43.26200666 18.07171288 44.36412048 15.35852051 C45.04856702 13.67214998 45.73091341 11.98492517 46.41090393 10.29675293 C46.87665077 9.14535828 46.87665077 9.14535828 47.35180664 7.97070312 C47.75792931 6.96287781 47.75792931 6.96287781 48.17225647 5.93469238 C49.03421636 3.92002579 50.02001466 1.95997068 51 0 C54.3 0 57.6 0 61 0 C61 19.47 61 38.94 61 59 C58.36 59 55.72 59 53 59 C52.67 45.47 52.34 31.94 52 18 C50.78441406 20.87589844 49.56882812 23.75179687 48.31640625 26.71484375 C47.1421042 29.48844776 45.96696749 32.26169671 44.79174805 35.03491211 C43.97316445 36.9678099 43.15545399 38.9010777 42.33862305 40.8347168 C41.16682657 43.60822901 39.99193345 46.38041108 38.81640625 49.15234375 C38.44971329 50.02213364 38.08302032 50.89192352 37.70521545 51.78807068 C37.3649382 52.58882523 37.02466095 53.38957977 36.67407227 54.21459961 C36.3742897 54.9229747 36.07450714 55.63134979 35.76564026 56.3611908 C35 58 35 58 34 59 C31.66702567 59.04092937 29.33294775 59.04241723 27 59 C20.49492776 45.54582329 14.78259657 31.77828565 9 18 C8.67 31.53 8.34 45.06 8 59 C5.36 59 2.72 59 0 59 C0 39.53 0 20.06 0 0 Z " fill="#656566" transform="translate(695,500)"/>
<path d="M0 0 C2.97 0 5.94 0 9 0 C13.19497755 7.98173855 16.66775432 16.21890322 20.0625 24.5625 C20.84249222 26.47176733 21.62362554 28.38055691 22.40611267 30.2888031 C23.11413522 32.01660048 23.81901805 33.74568351 24.52368164 35.47485352 C26.28387177 39.67782777 28.14936013 43.83606028 30 48 C36.6 32.16 43.2 16.32 50 0 C53.3 0 56.6 0 60 0 C60 19.47 60 38.94 60 59 C57.36 59 54.72 59 52 59 C51.67 45.47 51.34 31.94 51 18 C46.94296629 27.75007573 46.94296629 27.75007573 42.89379883 37.50341797 C39.85017046 44.80885088 36.69388103 51.99228858 33 59 C30.69 59 28.38 59 26 59 C24.2390123 54.94776006 22.47922606 50.89500095 20.72045898 46.84179688 C20.12441919 45.4686135 19.52807492 44.09556224 18.93139648 42.72265625 C18.06410022 40.72692658 17.19797288 38.73069276 16.33203125 36.734375 C15.81358643 35.54038086 15.2951416 34.34638672 14.76098633 33.11621094 C12.46956536 27.76013753 10.24063245 22.37751788 8 17 C7.67 30.86 7.34 44.72 7 59 C4.69 59 2.38 59 0 59 C0 39.53 0 20.06 0 0 Z " fill="#666667" transform="translate(1035,500)"/>
<path d="M0 0 C7.4559375 -0.0928125 7.4559375 -0.0928125 15.0625 -0.1875 C16.61718994 -0.21481201 18.17187988 -0.24212402 19.77368164 -0.27026367 C21.01496826 -0.27775635 22.25625488 -0.28524902 23.53515625 -0.29296875 C24.797229 -0.3086792 26.05930176 -0.32438965 27.35961914 -0.34057617 C34.16019165 0.29565203 39.1028865 3.21418454 44 8 C47.40264479 12.65028121 47.62364062 17.35159007 47.484375 22.95703125 C46.32680371 30.22919282 41.64414469 34.69237339 36 39 C36.35304199 39.46374023 36.70608398 39.92748047 37.06982422 40.40527344 C38.67494074 42.51763 40.27500618 44.63376104 41.875 46.75 C42.43058594 47.47960937 42.98617187 48.20921875 43.55859375 48.9609375 C44.09355469 49.66992188 44.62851562 50.37890625 45.1796875 51.109375 C45.67194824 51.75874023 46.16420898 52.40810547 46.67138672 53.07714844 C47.98979558 54.98523153 49.0165985 56.90262088 50 59 C46.53707638 59.52494725 43.44845824 59.68790653 40 59 C37.0995029 56.63405551 35.35106701 53.75007967 33.4375 50.5625 C32.91865234 49.76005859 32.39980469 48.95761719 31.86523438 48.13085938 C30.9128223 46.6555544 29.97486675 45.17074387 29.05639648 43.67407227 C28.10750274 42.03395576 28.10750274 42.03395576 27 41 C25.58672053 40.84379445 24.1664541 40.74943827 22.74609375 40.68359375 C21.9770874 40.64548584 21.20808105 40.60737793 20.41577148 40.56811523 C19.43294189 40.52501221 18.4501123 40.48190918 17.4375 40.4375 C14.323125 40.293125 11.20875 40.14875 8 40 C8 46.27 8 52.54 8 59 C5.36 59 2.72 59 0 59 C0 39.53 0 20.06 0 0 Z M8 7 C8 15.58 8 24.16 8 33 C12.9809375 33.12375 12.9809375 33.12375 18.0625 33.25 C19.61142944 33.30462402 19.61142944 33.30462402 21.19165039 33.36035156 C28.27216882 33.44504186 32.65829875 32.23031121 37.875 27.1875 C39.48963281 24.0479362 39.87839654 21.52650043 40 18 C38.33917095 13.29431769 36.1132785 10.77646298 32 8 C29.05868109 7.01956036 27.17498335 6.88378798 24.11328125 6.90234375 C22.845448 6.90609009 22.845448 6.90609009 21.55200195 6.90991211 C20.48296631 6.91901611 19.41393066 6.92812012 18.3125 6.9375 C14.909375 6.958125 11.50625 6.97875 8 7 Z " fill="#666667" transform="translate(232,500)"/>
<path d="M0 0 C4.74375 -0.0825 9.4875 -0.165 14.375 -0.25 C15.8501709 -0.28641602 17.3253418 -0.32283203 18.84521484 -0.36035156 C28.42806379 -0.44058608 35.30734046 0.90107389 43.3125 6.1875 C49.33687894 12.49208261 52.93653942 20.13782873 53.03125 28.88671875 C52.70365714 35.4140065 51.66501913 40.55550212 48 46 C47.38318359 46.92425781 47.38318359 46.92425781 46.75390625 47.8671875 C42.03788416 54.09287105 35.45683102 57.13579225 28 59 C18.76 59 9.52 59 0 59 C0 39.53 0 20.06 0 0 Z M8 7 C8 21.85 8 36.7 8 52 C25.54597825 52.75251118 25.54597825 52.75251118 39.4921875 44.79296875 C43.81654986 39.65078656 45.66220519 33.87736454 45.32421875 27.19921875 C44.45287568 21.28878325 42.2535875 16.2535875 38 12 C28.11963056 5.1668473 21.12866381 7 8 7 Z " fill="#656566" transform="translate(119,500)"/>
<path d="M0 0 C6.77691868 7.37342008 8.62830852 15.62025245 8.49609375 25.45703125 C7.83910961 34.50881268 4.36435431 41.86750459 -2.44921875 47.8984375 C-10.15905005 53.74903957 -18.27922415 54.21142683 -27.71484375 53.36328125 C-34.8841847 51.51312875 -41.34313648 47.24649107 -45.22265625 40.89453125 C-49.91233665 31.78315219 -51.37858997 22.69980074 -49.06640625 12.50390625 C-46.13157585 4.42685165 -41.32080866 -1.52849273 -33.71484375 -5.57421875 C-22.00297871 -10.7794921 -9.31769064 -8.89319448 0 0 Z M-38.48828125 8.484375 C-42.70970094 14.95094465 -42.50489381 21.88631264 -41.71484375 29.36328125 C-39.69276535 35.94154488 -36.45734447 40.6130767 -30.71484375 44.36328125 C-24.4152865 47.17797704 -19.01522221 47.02624984 -12.58984375 44.73828125 C-6.53839094 42.12118861 -4.24791871 38.95364929 -0.90234375 33.30078125 C1.71552088 26.51539648 1.35578316 18.13344505 -1.27734375 11.42578125 C-4.00107802 6.17148536 -8.01635874 2.96778585 -13.02734375 -0.01171875 C-23.68247507 -2.48965627 -31.56010109 0.14346537 -38.48828125 8.484375 Z " fill="#656566" transform="translate(415.71484375,506.63671875)"/>
<path d="M0 0 C6.58038738 6.78862748 9.31893206 14.46233506 9.6640625 23.84765625 C9.32057651 33.18825916 6.58267389 40.87506496 0.1015625 47.69140625 C-7.80223703 54.44788004 -16.79028052 55.12545521 -26.8359375 54.34765625 C-33.99939882 52.51757489 -40.43421097 48.22401798 -44.34375 41.9140625 C-48.91293465 33.12817316 -50.34343948 24.19498453 -48.1875 14.40234375 C-45.36784952 5.75059569 -40.91504289 -0.28016899 -32.8359375 -4.58984375 C-21.77754916 -9.50468301 -9.13003179 -8.21702861 0 0 Z M-37.609375 9.37109375 C-41.60678543 15.81278061 -41.67812684 23.01717147 -40.8359375 30.34765625 C-38.9441535 36.2028059 -36.27142317 41.18749016 -30.8359375 44.34765625 C-25.12034293 47.11482571 -19.91216461 48.54907056 -13.609375 46.69140625 C-8.00958103 44.51891093 -3.96181197 41.53353324 -0.8359375 36.34765625 C2.02066888 29.31903025 2.45068855 21.23221263 0.51171875 13.87109375 C-2.1242893 8.01078401 -6.71449523 4.20364895 -12.1484375 0.97265625 C-22.77378156 -1.498354 -30.62185002 1.13440229 -37.609375 9.37109375 Z " fill="#656566" transform="translate(1209.8359375,505.65234375)"/>
<path d="M0 0 C7.01656196 6.55305331 9.86391607 14.64076444 10.25 24.125 C10.08945666 32.91109905 7.7298694 40.30808466 2.03515625 47.0546875 C-5.22643507 53.99570953 -12.96265179 55.38212917 -22.6796875 55.2734375 C-30.97618108 54.59019685 -37.53002025 50.1258823 -43 44 C-48.46772654 35.54556734 -48.71653967 26.82542749 -48 17 C-45.96640092 8.22285991 -42.24741641 2.1285656 -34.7890625 -2.93359375 C-24.05474233 -9.33199857 -9.46547226 -8.00435909 0 0 Z M-35.8125 8.6875 C-40.14732404 15.25166211 -41.72826803 21.81436836 -40.56640625 29.6171875 C-38.83419189 36.9044341 -35.23893534 41.85887261 -29 46 C-23.25226129 48.63438024 -17.83334871 48.79958236 -11.875 46.75 C-4.88752796 43.82281577 -1.85969702 39.82682573 1 33 C3.43601517 25.69195448 2.44858594 18.17322007 -0.6640625 11.23046875 C-3.81710118 5.96618487 -8.24093986 2.92256049 -14 1 C-23.57276053 -0.35936061 -29.01620592 2.19326343 -35.8125 8.6875 Z " fill="#646465" transform="translate(101,505)"/>
<path d="M0 0 C5.79571244 5.81012964 8.43564789 14.72592872 8.6953125 22.82421875 C7.75231273 32.25421645 5.61494145 40.9804888 -1.86328125 47.46875 C-10.08968698 53.17035667 -17.76819542 54.51533398 -27.6796875 53.57421875 C-35.05245555 51.69730981 -41.88824613 46.89046479 -46.03125 40.484375 C-50.57736554 31.70284966 -51.26012787 21.06794524 -48.92578125 11.4765625 C-45.99337515 3.85230663 -41.67419423 -1.25656654 -34.6796875 -5.42578125 C-22.31743527 -10.57671968 -10.05946413 -8.53884746 0 0 Z M-37.6796875 7.57421875 C-41.90383014 13.92460768 -43.44886437 20.6263406 -42.2734375 28.1875 C-40.53948368 34.98914028 -37.60190642 40.16659074 -31.53515625 43.890625 C-25.34714437 46.91610952 -20.15237581 47.55633386 -13.5546875 45.32421875 C-6.56721546 42.39703452 -3.53938452 38.40104448 -0.6796875 31.57421875 C1.75632767 24.26617323 0.76889844 16.74743882 -2.34375 9.8046875 C-5.48971518 4.55221347 -9.92164398 1.4735137 -15.6796875 -0.42578125 C-25.04610385 -1.47558337 -31.4524271 0.19983143 -37.6796875 7.57421875 Z " fill="#656566" transform="translate(554.6796875,506.42578125)"/>
<path d="M0 0 C4.7025 -0.12375 9.405 -0.2475 14.25 -0.375 C15.70696289 -0.42962402 17.16392578 -0.48424805 18.66503906 -0.54052734 C28.51734706 -0.66478347 36.333413 1.22328217 43.99462891 7.68139648 C49.49406476 13.18350802 52.13540952 21.35575302 52.5 29 C52.07840631 37.56787186 48.91054356 45.08307051 42.99609375 51.27734375 C30.23839537 62.28741221 17.42028863 59 0 59 C0 39.53 0 20.06 0 0 Z M7 7 C7 21.85 7 36.7 7 52 C25.38841353 52.67698157 25.38841353 52.67698157 39.3359375 43.875 C43.94546828 38.6811625 44.49516661 33.31920845 44.28515625 26.64453125 C43.5920912 20.21706498 40.54917729 15.45028213 36 11 C25.5954378 5.64620511 25.5954378 5.64620511 7 7 Z " fill="#666667" transform="translate(308,500)"/>
<path d="M0 0 C2.57610329 3.09132395 3.90101195 4.86163748 4.25 8.875 C4.1675 9.57625 4.085 10.2775 4 11 C0.75 11.375 0.75 11.375 -3 11 C-5.125 8.1875 -5.125 8.1875 -7 5 C-12.20106205 1.22923001 -16.63117819 0.57541188 -23 1 C-27.20035391 1.98059733 -30.17683847 3.10420657 -33.125 6.3125 C-34.20891908 9.02899425 -34.20891908 9.02899425 -33.6875 12.125 C-31.35932131 16.09152666 -28.20764449 16.74179873 -24 18 C-21.01626195 18.71588638 -18.01240185 19.29393405 -15 19.875 C-7.21309137 21.50741907 -0.93523078 23.05578364 4 29.6875 C5.76204939 35.5242886 6.04112555 40.70084775 3.5 46.3125 C-1.47199803 51.65739788 -6.81760217 54.67868228 -14.1015625 55.23828125 C-23.3998081 55.4341423 -30.63205632 54.62446391 -37.9375 48.5625 C-41.34204786 44.33260721 -43.47833859 41.58061689 -43 36 C-40.36 36 -37.72 36 -35 36 C-34.608125 36.9075 -34.21625 37.815 -33.8125 38.75 C-31.35995786 43.14766177 -28.77292642 45.40902453 -24 47 C-17.51554951 47.48656771 -11.50902115 47.9143045 -6 44 C-3.67420899 40.51131349 -3.58134543 39.10281481 -4 35 C-5.67624678 31.72791679 -6.80211175 31.06673515 -10.3359375 29.875 C-11.67924728 29.56961856 -13.02589842 29.27868245 -14.375 29 C-15.81696246 28.66776949 -17.25836385 28.33309523 -18.69921875 27.99609375 C-19.42028809 27.83093262 -20.14135742 27.66577148 -20.88427734 27.49560547 C-36.87132115 23.75065983 -36.87132115 23.75065983 -41 18 C-42.85606957 12.43179128 -42.91152916 6.96890298 -40.4375 1.625 C-30.20020526 -9.39977895 -11.28269609 -9.87235908 0 0 Z " fill="#646465" transform="translate(1000,505)"/>
<path d="M0 0 C3.12252528 3.36001312 4.24988812 6.07655873 4.57421875 10.6171875 C-0.6742902 11.14203839 -0.6742902 11.14203839 -3.42578125 10.6171875 C-5.61328125 7.8046875 -5.61328125 7.8046875 -7.42578125 4.6171875 C-11.73477919 0.94186573 -16.92109797 0.46660346 -22.42578125 0.6171875 C-26.76316613 1.56644682 -30.607522 3.06635322 -33.42578125 6.6171875 C-33.58603524 10.16297435 -33.58603524 10.16297435 -32.42578125 13.6171875 C-27.28008751 17.9070486 -19.91092627 18.38371353 -13.52929688 19.63476562 C-7.92483293 20.80885333 -3.89262893 21.98918446 0.57421875 25.6171875 C1.16589844 26.09671875 1.75757813 26.57625 2.3671875 27.0703125 C4.91789559 30.33918113 5.2185742 34.58859315 5.57421875 38.6171875 C4.74611296 44.2299045 2.89628757 46.99871128 -1.42578125 50.6171875 C-9.04072903 55.81763964 -18.18550814 55.69372584 -27.09765625 54.15625 C-32.4474619 52.58820352 -36.86476002 49.95024586 -40.42578125 45.6171875 C-42.08563623 42.44515146 -43.42578125 39.25502516 -43.42578125 35.6171875 C-38.24923305 34.91528266 -38.24923305 34.91528266 -35.42578125 35.6171875 C-33.81509531 37.49997842 -32.78374759 39.46113854 -31.60546875 41.63671875 C-29.68352783 44.86328844 -28.02380848 45.58917972 -24.42578125 46.6171875 C-14.38662281 47.52272093 -14.38662281 47.52272093 -5.42578125 43.6171875 C-3.39122455 41.05187688 -3.41156777 39.84934102 -3.61328125 36.5546875 C-4.47561507 33.43701906 -4.99743736 32.61308658 -7.42578125 30.6171875 C-9.37112153 29.74875309 -9.37112153 29.74875309 -11.61328125 29.1796875 C-12.48855469 28.9321875 -13.36382812 28.6846875 -14.265625 28.4296875 C-16.64978353 27.81670237 -19.03232948 27.23618674 -21.4296875 26.6796875 C-22.13005127 26.5139624 -22.83041504 26.3482373 -23.55200195 26.17749023 C-24.93717225 25.85281358 -26.32501419 25.53927291 -27.71557617 25.23852539 C-32.33190145 24.16102157 -35.70044437 22.54226683 -39.42578125 19.6171875 C-42.25967012 14.95498323 -42.96561922 11.12493 -42.125 5.828125 C-40.4257471 0.45506834 -36.85622574 -2.58812112 -32.05078125 -5.2578125 C-21.07155137 -8.66515971 -8.61983602 -8.36006014 0 0 Z " fill="#646465" transform="translate(493.42578125,505.3828125)"/>
<path d="M0 0 C2.02746349 3.22892333 2.81683202 5.98716108 3.6875 9.6875 C-1.48999409 10.30177896 -1.48999409 10.30177896 -4.3125 9.6875 C-5.8352021 8.06444791 -6.82872789 6.34809873 -7.9765625 4.4453125 C-10.35899454 1.31053351 -13.5725467 0.48277743 -17.3125 -0.3125 C-22.72444892 -0.89235167 -27.55421673 0.02942452 -32.3125 2.6875 C-34.37175681 5.77638522 -34.5515374 6.39685927 -34.4375 9.875 C-34.39625 11.133125 -34.355 12.39125 -34.3125 13.6875 C-27.61019284 16.16983599 -20.88158806 17.73154834 -13.87353516 19.06542969 C-7.89429292 20.28948577 -2.66182417 22.10324341 1.5625 26.75 C4.300941 31.46620395 4.28277077 36.3879366 3.6875 41.6875 C1.04479742 46.97290516 -2.50820791 50.56416686 -8.0234375 52.7734375 C-16.43441754 55.11093077 -26.20348428 54.83750242 -34.15234375 51.08203125 C-38.51571659 48.2651703 -42.37863308 44.67474901 -43.9609375 39.61328125 C-44.25 37.6875 -44.25 37.6875 -44.3125 34.6875 C-41.6725 34.6875 -39.0325 34.6875 -36.3125 34.6875 C-35.920625 35.595 -35.52875 36.5025 -35.125 37.4375 C-32.67245786 41.83516177 -30.08542642 44.09652453 -25.3125 45.6875 C-15.79379339 46.42850239 -15.79379339 46.42850239 -7.3125 42.6875 C-5.1775707 40.49109527 -5.1775707 40.49109527 -4.3125 37.6875 C-4.87099558 34.19690263 -5.4478233 32.36639275 -8.2578125 30.16015625 C-13.38805082 27.68688279 -18.92580556 26.82438603 -24.4765625 25.66992188 C-30.90833381 24.25033806 -36.60909139 22.66124947 -41.1875 17.625 C-43.59380798 13.48080292 -43.88924534 9.36171973 -43.3125 4.6875 C-41.37455283 -0.50972195 -39.44011308 -2.56859698 -34.5625 -5.1875 C-23.01085405 -10.28975761 -9.19737361 -9.19737361 0 0 Z " fill="#656566" transform="translate(829.3125,506.3125)"/>
<path d="M0 0 C2.44154544 2.30499368 3.70831641 4.46592033 4.74609375 7.6484375 C4.74609375 8.9684375 4.74609375 10.2884375 4.74609375 11.6484375 C2.10609375 11.6484375 -0.53390625 11.6484375 -3.25390625 11.6484375 C-3.56328125 10.7409375 -3.87265625 9.8334375 -4.19140625 8.8984375 C-7.0365884 4.41512018 -10.2572603 3.12985514 -15.25390625 1.6484375 C-20.71025193 0.97835996 -25.4708653 1.96736073 -30.25390625 4.6484375 C-32.53558983 6.81007569 -32.53558983 6.81007569 -33.25390625 9.6484375 C-33.15108209 12.87487475 -33.15108209 12.87487475 -31.25390625 15.6484375 C-25.69148866 18.10154338 -20.19716398 19.37640452 -14.25390625 20.5234375 C-1.51070768 23.20655774 -1.51070768 23.20655774 2.74609375 27.6484375 C5.83751397 32.76860224 6.29949808 36.83769201 5.74609375 42.6484375 C3.47942237 48.85195916 0.07927108 51.46063813 -5.69140625 54.3984375 C-13.70227012 57.159758 -23.50770642 56.74660063 -31.35546875 53.625 C-36.71002087 50.87060076 -40.10479284 47.3794066 -42.25390625 41.6484375 C-42.44140625 38.7734375 -42.44140625 38.7734375 -42.25390625 36.6484375 C-39.61390625 36.6484375 -36.97390625 36.6484375 -34.25390625 36.6484375 C-33.92390625 37.7209375 -33.59390625 38.7934375 -33.25390625 39.8984375 C-31.55408124 43.76025192 -29.54506944 45.34462537 -25.703125 46.9921875 C-19.60775318 48.62539718 -13.54088257 48.47648065 -7.62890625 46.3359375 C-5.03339377 44.7044023 -5.03339377 44.7044023 -3.25390625 41.6484375 C-2.82048538 38.25330733 -2.79000452 36.38646298 -4.62890625 33.4609375 C-9.57302319 30.04714247 -15.41271437 29.03868501 -21.21875 27.78515625 C-34.93263585 24.74843039 -34.93263585 24.74843039 -40.25390625 18.6484375 C-42.10997582 13.08022878 -42.16543541 7.61734048 -39.69140625 2.2734375 C-29.42109995 -8.78689236 -11.76324525 -8.84941386 0 0 Z " fill="#656566" transform="translate(1267.25390625,504.3515625)"/>
<path d="M0 0 C1.23556641 0.01740234 1.23556641 0.01740234 2.49609375 0.03515625 C3.32238281 0.04417969 4.14867187 0.05320312 5 0.0625 C5.63808594 0.07410156 6.27617188 0.08570313 6.93359375 0.09765625 C9.35232398 5.32146319 11.76921342 10.54611683 14.18457031 15.77148438 C15.00245298 17.54025957 15.82079485 19.30882252 16.63964844 21.07714844 C20.98030374 30.45168408 25.29812169 39.8362923 29.52734375 49.26171875 C29.87220825 50.02374603 30.21707275 50.78577332 30.5723877 51.57089233 C32.93359375 56.86454676 32.93359375 56.86454676 32.93359375 59.09765625 C30.29359375 59.09765625 27.65359375 59.09765625 24.93359375 59.09765625 C23.76205082 56.80836572 22.59621301 54.51647263 21.43359375 52.22265625 C21.09972656 51.57167969 20.76585937 50.92070313 20.421875 50.25 C17.93359375 45.32421875 17.93359375 45.32421875 17.93359375 43.09765625 C2.58859375 43.59265625 2.58859375 43.59265625 -13.06640625 44.09765625 C-15.37640625 49.04765625 -17.68640625 53.99765625 -20.06640625 59.09765625 C-23.03640625 59.09765625 -26.00640625 59.09765625 -29.06640625 59.09765625 C-27.66671002 54.61539204 -25.91809401 50.45593465 -23.90625 46.21484375 C-23.60011276 45.56633957 -23.29397552 44.91783539 -22.9785614 44.24967957 C-22.326164 42.8681909 -21.67232509 41.48738218 -21.01715088 40.10720825 C-19.31437847 36.52006241 -17.62166026 32.92818727 -15.9296875 29.3359375 C-15.59588074 28.62761276 -15.26207397 27.91928802 -14.91815186 27.1894989 C-11.72080742 20.39053393 -8.62793996 13.54653215 -5.59350586 6.67333984 C-2.69054503 0.12715241 -2.69054503 0.12715241 0 0 Z M1.93359375 10.09765625 C0.67829823 12.55340428 -0.57065251 15.01207173 -1.81640625 17.47265625 C-2.16445312 18.15199219 -2.5125 18.83132813 -2.87109375 19.53125 C-5.62519564 24.98845189 -7.77337182 30.36507017 -10.06640625 36.09765625 C-2.14640625 36.09765625 5.77359375 36.09765625 13.93359375 36.09765625 C11.67955831 29.11525979 11.67955831 29.11525979 8.890625 22.5 C8.3637207 21.39301758 8.3637207 21.39301758 7.82617188 20.26367188 C7.46974609 19.52826172 7.11332031 18.79285156 6.74609375 18.03515625 C6.37806641 17.26494141 6.01003906 16.49472656 5.63085938 15.70117188 C4.73646753 13.83107983 3.8357118 11.9640335 2.93359375 10.09765625 C2.60359375 10.09765625 2.27359375 10.09765625 1.93359375 10.09765625 Z " fill="#656566" transform="translate(1128.06640625,499.90234375)"/>
<path d="M0 0 C2.64 0 5.28 0 8 0 C13.50442885 10.69230907 18.64971319 21.54839617 23.75 32.4375 C24.07751251 33.13609131 24.40502502 33.83468262 24.74246216 34.55444336 C35 56.44727765 35 56.44727765 35 59 C32.36 59 29.72 59 27 59 C25.82845707 56.71070947 24.66261926 54.41881638 23.5 52.125 C23.16613281 51.47402344 22.83226562 50.82304688 22.48828125 50.15234375 C20 45.2265625 20 45.2265625 20 43 C9.44 43 -1.12 43 -12 43 C-12.99 45.97 -13.98 48.94 -15 52 C-16.27410499 54.36619498 -17.58881646 56.71290944 -19 59 C-21.64 59 -24.28 59 -27 59 C-25.43505598 53.91304877 -23.34984208 49.19030011 -21.11328125 44.375 C-20.73318405 43.55104736 -20.35308685 42.72709473 -19.96147156 41.87817383 C-19.15691103 40.13601335 -18.35079182 38.39457195 -17.54321289 36.65380859 C-16.33011186 34.03797677 -15.12266539 31.41959411 -13.91601562 28.80078125 C-9.44134555 19.11388465 -4.84995397 9.50516227 0 0 Z M4 10 C2.74470448 12.45574803 1.49575374 14.91441548 0.25 17.375 C-0.09804688 18.05433594 -0.44609375 18.73367188 -0.8046875 19.43359375 C-3.55878939 24.89079564 -5.70696557 30.26741392 -8 36 C-0.08 36 7.84 36 16 36 C14.71740753 32.15222258 13.49349631 28.68569188 11.8359375 25.0390625 C11.23652344 23.71455078 11.23652344 23.71455078 10.625 22.36328125 C10.2125 21.45964844 9.8 20.55601562 9.375 19.625 C8.95476563 18.69816406 8.53453125 17.77132812 8.1015625 16.81640625 C7.07035118 14.54305401 6.03643137 12.27097594 5 10 C4.67 10 4.34 10 4 10 Z " fill="#656566" transform="translate(921,500)"/>
<path d="M0 0 C13.2 0 26.4 0 40 0 C40 2.31 40 4.62 40 7 C29.44 7 18.88 7 8 7 C8 13.27 8 19.54 8 26 C18.23 26 28.46 26 39 26 C39 28.31 39 30.62 39 33 C28.77 33 18.54 33 8 33 C8 39.27 8 45.54 8 52 C18.56 52 29.12 52 40 52 C40 54.31 40 56.62 40 59 C26.8 59 13.6 59 0 59 C0 39.53 0 20.06 0 0 Z " fill="#666667" transform="translate(180,500)"/>
<path d="M0 0 C13.2 0 26.4 0 40 0 C40 2.31 40 4.62 40 7 C29.11 7 18.22 7 7 7 C7 13.27 7 19.54 7 26 C17.23 26 27.46 26 38 26 C38 28.31 38 30.62 38 33 C27.77 33 17.54 33 7 33 C7 39.27 7 45.54 7 52 C17.89 52 28.78 52 40 52 C40 54.31 40 56.62 40 59 C26.8 59 13.6 59 0 59 C0 39.53 0 20.06 0 0 Z " fill="#666667" transform="translate(644,500)"/>
<path d="M0 0 C4.95 -0.0825 9.9 -0.165 15 -0.25 C17.31837891 -0.30462402 17.31837891 -0.30462402 19.68359375 -0.36035156 C28.27852243 -0.4296655 34.01734838 0.13315454 41.0234375 5.5703125 C45.07407959 10.22972161 46.86708069 14.79076957 47 21 C46.03914492 27.09848839 43.47720631 31.72178064 39 36 C32.53282024 40.60461605 26.19753782 40.48939711 18.5 40.25 C16.83710937 40.22292969 16.83710937 40.22292969 15.140625 40.1953125 C12.42670579 40.14852079 9.71323613 40.0767897 7 40 C7 46.27 7 52.54 7 59 C4.69 59 2.38 59 0 59 C0 39.53 0 20.06 0 0 Z M7 7 C7 15.58 7 24.16 7 33 C12.011875 33.0928125 12.011875 33.0928125 17.125 33.1875 C18.16672363 33.21481201 19.20844727 33.24212402 20.28173828 33.27026367 C25.61336181 33.31794986 29.42317078 33.06089054 34 30 C36.84802876 26.84407624 38.82813883 24.51237829 39.3125 20.25 C38.84261007 15.36314478 36.57698707 12.38583713 32.9375 9.1875 C29.6138501 7.15042425 26.91800918 6.87928479 23.11328125 6.90234375 C21.845448 6.90609009 21.845448 6.90609009 20.55200195 6.90991211 C19.48296631 6.91901611 18.41393066 6.92812012 17.3125 6.9375 C13.909375 6.958125 10.50625 6.97875 7 7 Z " fill="#666667" transform="translate(0,500)"/>
<path d="M0 0 C2.64 0 5.28 0 8 0 C8.01401855 1.66385742 8.01401855 1.66385742 8.02832031 3.36132812 C8.06842102 7.50658206 8.13423398 11.6511094 8.20751953 15.79589844 C8.23561334 17.5842144 8.25688514 19.37265186 8.27099609 21.16113281 C8.29258751 23.74346602 8.33931709 26.32435619 8.390625 28.90625 C8.39185364 29.69616333 8.39308228 30.48607666 8.39434814 31.29992676 C8.52669075 36.40194385 9.60132794 39.9401296 12.14642334 44.37438965 C13 46 13 46 13 48 C17.99695702 50.69331399 23.53479434 52.45642224 29.25390625 51.703125 C34.6051643 50.03783787 37.4153606 46.8808641 40 42 C41.30920503 38.0723849 41.23462868 34.27429369 41.31640625 30.17578125 C41.33718735 29.31438034 41.35796844 28.45297943 41.37937927 27.56547546 C41.44474909 24.81456456 41.50370132 22.06355844 41.5625 19.3125 C41.60569717 17.44725579 41.64931185 15.5820212 41.69335938 13.71679688 C41.80041763 9.14462876 41.90172054 4.5723649 42 0 C44.64 0 47.28 0 50 0 C50.09980707 5.21031273 50.17190561 10.42005385 50.21972656 15.63110352 C50.23968762 17.39910593 50.26686652 19.16704366 50.30175781 20.93481445 C50.76845003 45.20967283 50.76845003 45.20967283 41.8203125 54.5625 C36.19199604 59.00717909 29.54339235 60.70277513 22.453125 60.390625 C16.34285982 59.41765284 10.25534755 56.49175575 6 52 C1.43365179 44.24239708 -0.15474949 38.26313185 -0.09765625 29.296875 C-0.0962413 28.45908508 -0.09482635 27.62129517 -0.09336853 26.75811768 C-0.08778197 24.08870843 -0.07523194 21.4193838 -0.0625 18.75 C-0.05748326 16.93750121 -0.05292066 15.12500111 -0.04882812 13.3125 C-0.03781694 8.87496752 -0.02056155 4.43749809 0 0 Z " fill="#656566" transform="translate(842,500)"/>
<path d="M0 0 C4.83735148 2.61364524 8.06265925 6.09032151 9.79296875 11.28125 C10.45439961 18.6979501 10.5049429 24.32928266 5.79296875 30.28125 C-0.04235169 34.80660055 -4.96571193 36.12489885 -12.20703125 35.28125 C-18.57251412 33.22642746 -22.27488092 29.8557281 -25.45703125 23.96875 C-26.89261766 18.82456535 -26.62030617 14.69124677 -25.14453125 9.65625 C-19.71766646 0.20300165 -10.59120185 -3.44917016 0 0 Z " fill="#F3A745" transform="translate(27.20703125,258.71875)"/>
<path d="M0 0 C2.64 0 5.28 0 8 0 C8 17.16 8 34.32 8 52 C18.56 52 29.12 52 40 52 C40 54.31 40 56.62 40 59 C26.8 59 13.6 59 0 59 C0 39.53 0 20.06 0 0 Z " fill="#666667" transform="translate(571,500)"/>
<path d="M0 0 C6.06705619 2.02235206 9.11123532 3.39480734 12.8125 8.5 C14.74686031 14.2012725 15.14085356 20.38407431 13.30859375 26.19140625 C11.1210828 30.42913666 8.12369975 32.7663293 4 35 C2.02 35.495 2.02 35.495 0 36 C0 24.12 0 12.24 0 0 Z " fill="#ED7D61" transform="translate(23,258)"/>
<path d="M0 0 C4.25694796 0.78798824 7.85283801 2.85529814 11.60546875 4.94140625 C14.1177081 6.27556215 14.1177081 6.27556215 17.9375 6 C18.2675 4.02 18.5975 2.04 18.9375 0 C20.5875 0 22.2375 0 23.9375 0 C23.82291307 1.43836751 23.69540884 2.87570966 23.5625 4.3125 C23.49289062 5.11300781 23.42328125 5.91351563 23.3515625 6.73828125 C22.9375 9 22.9375 9 20.9375 12 C18.08839547 13.03052717 16.86630473 13.37908288 13.9375 13 C10.98103911 11.59275802 8.25350758 10.00222262 5.48828125 8.25 C3.05460143 6.76455721 3.05460143 6.76455721 0.60546875 7.3125 C0.05503906 7.539375 -0.49539063 7.76625 -1.0625 8 C-1.3925 9.65 -1.7225 11.3 -2.0625 13 C-4.0425 13 -6.0225 13 -8.0625 13 C-7.80629316 11.3934324 -7.53194129 9.7897517 -7.25 8.1875 C-7.09917969 7.29417969 -6.94835938 6.40085937 -6.79296875 5.48046875 C-5.58631438 1.38300605 -4.31234461 0 0 0 Z " fill="#646465" transform="translate(1122.0625,483)"/>
<path d="M0 0 C4.61152867 4.61152867 5.1629476 6.54751096 5.3125 12.75 C5.29192121 18.40230729 4.29874408 21.4642269 1 26 C0.67 26 0.34 26 0 26 C0 17.42 0 8.84 0 0 Z " fill="#E55E70" transform="translate(32,263)"/>
</svg>
